<svg xmlns="http://www.w3.org/2000/svg" viewBox="0 0 1381.26 533.25"><defs><style>.cls-1{fill:#e2ea71;}.cls-2{fill:#6799d1;}.cls-3{fill:#6ec3ab;}.cls-4{fill:#fff;}</style></defs><g id="레이어_2" data-name="레이어 2"><g id="레이어_1-2" data-name="레이어 1"><path d="M633.22,118.05h36.59a5,5,0,0,1,4.94,5V236.36a5,5,0,0,0,5,4.95H807.59a4.94,4.94,0,0,0,4.94-4.95V123a5,5,0,0,1,5-5h36.17a5,5,0,0,1,5,5V410.25a5,5,0,0,1-5,4.95H817.48a5,5,0,0,1-5-4.95v-120a4.94,4.94,0,0,0-4.94-4.95H679.7a5,5,0,0,0-5,4.95v120a5,5,0,0,1-4.94,4.95H633.22a5,5,0,0,1-5-4.95V123A5,5,0,0,1,633.22,118.05Z"/><path d="M990.53,276.47,894.71,124.19a4,4,0,0,1,3.38-6.14h45.7a4,4,0,0,1,3.42,1.93l65,107.41a2.21,2.21,0,0,0,1.87,1.06h0a2.19,2.19,0,0,0,1.89-1.09l63-107.33a4,4,0,0,1,3.45-2h46.14a4,4,0,0,1,3.4,6.11l-94.25,152.31a2.25,2.25,0,0,0-.33,1.15V411.2a4,4,0,0,1-4,4H994.86a4,4,0,0,1-4-4V277.63A2.14,2.14,0,0,0,990.53,276.47Z"/><path d="M1167.53,122.05a4,4,0,0,1,4-4h100.58q26.57,0,48.56,11.63a87.74,87.74,0,0,1,34.65,32.37Q1368,182.8,1368,208.94a80.79,80.79,0,0,1-19.3,53.12,93,93,0,0,1-47.23,30.82,1.88,1.88,0,0,0-1.34,1.44l0,.15a1.91,1.91,0,0,0,.3,1.45l80.54,116.3a1.87,1.87,0,0,1,.34,1.08h0a1.9,1.9,0,0,1-1.9,1.9h-49.92a4,4,0,0,1-3.32-1.77l-76.68-113.6a1.9,1.9,0,0,0-1.57-.84h-32a1.9,1.9,0,0,0-1.9,1.9V411.2a4,4,0,0,1-4,4h-38.48a4,4,0,0,1-4-4Zm103.34,133.79q20.75,0,35.27-13.29t14.53-34a47.71,47.71,0,0,0-22.41-40.05q-10.8-6.85-25.73-6.85h-56.62a1.9,1.9,0,0,0-1.9,1.9v90.41a1.9,1.9,0,0,0,1.9,1.9Z"/><rect width="533.25" height="533.25" rx="52.62"/><rect class="cls-1" x="324.28" y="29.46" width="121.1" height="474.34" rx="36.44"/><polygon class="cls-2" points="0 279.44 533.25 403.03 533.25 278.72 0 155.13 0 279.44"/><rect class="cls-3" x="87.87" y="29.46" width="121.1" height="474.34" rx="36.44"/><rect class="cls-4" x="374.89" y="413.56" width="19.31" height="52.79" rx="7.47"/><rect class="cls-4" x="375.18" y="340.67" width="19.31" height="52.79" rx="7.47"/><path class="cls-4" d="M385.34,308.34,384,314a7.47,7.47,0,0,1-9.28,5.46l-32.79-9.18a7.49,7.49,0,0,1-5.26-8.94l1.36-5.69a7.48,7.48,0,0,1,9.29-5.46l32.79,9.18A7.47,7.47,0,0,1,385.34,308.34Z"/><path class="cls-4" d="M322.46,290.74l-1.36,5.69a7.46,7.46,0,0,1-9.28,5.46L279,292.71a7.48,7.48,0,0,1-5.26-8.93l1.36-5.69a7.48,7.48,0,0,1,9.29-5.47l32.79,9.19A7.47,7.47,0,0,1,322.46,290.74Z"/><path class="cls-4" d="M258.17,272.38l-1.36,5.69a7.48,7.48,0,0,1-9.29,5.46l-32.79-9.18a7.47,7.47,0,0,1-5.25-8.93l1.36-5.7a7.47,7.47,0,0,1,9.28-5.46l32.79,9.18A7.49,7.49,0,0,1,258.17,272.38Z"/><path class="cls-4" d="M196,254.78l-1.35,5.69a7.47,7.47,0,0,1-9.29,5.46l-32.79-9.18a7.48,7.48,0,0,1-5.26-8.93l1.36-5.69a7.47,7.47,0,0,1,9.29-5.46l32.79,9.18A7.46,7.46,0,0,1,196,254.78Z"/><rect class="cls-4" x="137.49" y="169.69" width="19.31" height="52.79" rx="7.47"/><rect class="cls-4" x="137.77" y="99.8" width="19.31" height="52.79" rx="7.47"/><rect class="cls-4" x="124.94" y="44.35" width="19.31" height="52.79" rx="7.47" transform="translate(82.71 -72.18) rotate(42.32)"/><rect class="cls-4" x="148.96" y="43.23" width="19.31" height="52.79" rx="7.47" transform="translate(0.34 140.02) rotate(-47.68)"/></g></g></svg>