<svg xmlns="http://www.w3.org/2000/svg" viewBox="0 0 533.25 533.25"><defs><style>.cls-1{fill:#e2ea71;}.cls-2{fill:#6799d1;}.cls-3{fill:#6ec3ab;}.cls-4{fill:#fff;}</style></defs><g id="레이어_2" data-name="레이어 2"><g id="레이어_1-2" data-name="레이어 1"><rect width="533.25" height="533.25" rx="52.62"/><rect class="cls-1" x="324.28" y="29.46" width="121.1" height="474.34" rx="36.44"/><polygon class="cls-2" points="0 279.44 533.25 403.03 533.25 278.72 0 155.13 0 279.44"/><rect class="cls-3" x="87.87" y="29.46" width="121.1" height="474.34" rx="36.44"/><rect class="cls-4" x="374.89" y="413.56" width="19.31" height="52.79" rx="7.47"/><rect class="cls-4" x="375.18" y="340.67" width="19.31" height="52.79" rx="7.47"/><path class="cls-4" d="M385.34,308.34,384,314a7.47,7.47,0,0,1-9.28,5.46l-32.79-9.18a7.49,7.49,0,0,1-5.26-8.94l1.36-5.69a7.48,7.48,0,0,1,9.29-5.46l32.79,9.18A7.47,7.47,0,0,1,385.34,308.34Z"/><path class="cls-4" d="M322.46,290.74l-1.36,5.69a7.46,7.46,0,0,1-9.28,5.46L279,292.71a7.48,7.48,0,0,1-5.26-8.93l1.36-5.69a7.48,7.48,0,0,1,9.29-5.47l32.79,9.19A7.47,7.47,0,0,1,322.46,290.74Z"/><path class="cls-4" d="M258.17,272.38l-1.36,5.69a7.48,7.48,0,0,1-9.29,5.46l-32.79-9.18a7.47,7.47,0,0,1-5.25-8.93l1.36-5.7a7.47,7.47,0,0,1,9.28-5.46l32.79,9.18A7.49,7.49,0,0,1,258.17,272.38Z"/><path class="cls-4" d="M196,254.78l-1.35,5.69a7.47,7.47,0,0,1-9.29,5.46l-32.79-9.18a7.48,7.48,0,0,1-5.26-8.93l1.36-5.69a7.47,7.47,0,0,1,9.29-5.46l32.79,9.18A7.46,7.46,0,0,1,196,254.78Z"/><rect class="cls-4" x="137.49" y="169.69" width="19.31" height="52.79" rx="7.47"/><rect class="cls-4" x="137.77" y="99.8" width="19.31" height="52.79" rx="7.47"/><rect class="cls-4" x="124.94" y="44.35" width="19.31" height="52.79" rx="7.47" transform="translate(82.71 -72.18) rotate(42.32)"/><rect class="cls-4" x="148.96" y="43.23" width="19.31" height="52.79" rx="7.47" transform="translate(0.34 140.02) rotate(-47.68)"/></g></g></svg>